<svg xmlns="http://www.w3.org/2000/svg" width="1200" height="650" viewBox="0 0 1200 650"><defs><style>
.bg{fill:#f7fafc}.title{font-family:sans-serif;font-size:34px;font-weight:700;fill:#123b61}.head{font-family:sans-serif;font-size:26px;font-weight:700;fill:#173650}.txt{font-family:sans-serif;font-size:20px;fill:#50687e}.tiny{font-family:monospace;font-size:18px;fill:#486176}.code{font-family:monospace;font-size:21px;fill:#dceaf4}.kw{fill:#78c7ff}.box{fill:#fff;stroke:#7897b1;stroke-width:3}.blue{fill:#e5f2fa;stroke:#187caf;stroke-width:3}.green{fill:#edf7ed;stroke:#4d8d5a;stroke-width:3}.amber{fill:#fff4df;stroke:#c88725;stroke-width:3}.line{stroke:#426b8c;stroke-width:4;fill:none}.dash{stroke:#6f879a;stroke-width:3;stroke-dasharray:10 8;fill:none}</style>
<marker id="a" markerWidth="10" markerHeight="10" refX="8" refY="3" orient="auto"><path d="M0 0L9 3L0 6Z" fill="#426b8c"/></marker></defs><rect width="1200" height="650" rx="20" class="bg"/><text x="600" y="48" text-anchor="middle" class="title">Incremental scheduling timeline</text><text x="80" y="115" text-anchor="start" class="head">Priority</text><text x="80" y="185" text-anchor="start" class="txt">link / mesh</text><text x="80" y="285" text-anchor="start" class="txt">service</text><text x="80" y="385" text-anchor="start" class="txt">compute</text><line x1="190" y1="135" x2="1130" y2="135" class="dash"/>
   <rect x="210" y="155" width="120" height="55" rx="8" fill="#e5f2fa"/><rect x="470" y="155" width="95" height="55" rx="8" fill="#e5f2fa"/><rect x="750" y="155" width="130" height="55" rx="8" fill="#e5f2fa"/>
   <rect x="350" y="255" width="100" height="55" rx="8" fill="#fff4df"/><rect x="590" y="255" width="135" height="55" rx="8" fill="#fff4df"/><rect x="920" y="255" width="110" height="55" rx="8" fill="#fff4df"/>
   <rect x="210" y="355" width="135" height="55" rx="8" fill="#edf7ed"/><rect x="455" y="355" width="130" height="55" rx="8" fill="#edf7ed"/><rect x="735" y="355" width="150" height="55" rx="8" fill="#edf7ed"/><rect x="1040" y="355" width="90" height="55" rx="8" fill="#edf7ed"/>
   <text x="278" y="190" text-anchor="middle" class="tiny">HELLO</text><text x="517" y="190" text-anchor="middle" class="tiny">route</text><text x="815" y="190" text-anchor="middle" class="tiny">lease</text>
   <text x="400" y="290" text-anchor="middle" class="tiny">RPC</text><text x="657" y="290" text-anchor="middle" class="tiny">Job I/O</text><text x="975" y="290" text-anchor="middle" class="tiny">health</text>
   <text x="278" y="390" text-anchor="middle" class="tiny">step 1</text><text x="520" y="390" text-anchor="middle" class="tiny">step 2</text><text x="810" y="390" text-anchor="middle" class="tiny">step 3</text><text x="1085" y="390" text-anchor="middle" class="tiny">done</text>
   <path d="M210 470L1130 470" class="line"/><text x="210" y="500" text-anchor="start" class="txt">time</text><text x="1130" y="500" text-anchor="end" class="txt">communication preempts between work units</text><text x="600" y="625" text-anchor="middle" class="txt">The compute task never owns the UART or protocol dispatcher.</text></svg>
