<svg xmlns="http://www.w3.org/2000/svg" width="1200" height="650" viewBox="0 0 1200 650"><defs><style>
.bg{fill:#f7fafc}.title{font-family:sans-serif;font-size:34px;font-weight:700;fill:#123b61}.head{font-family:sans-serif;font-size:26px;font-weight:700;fill:#173650}.txt{font-family:sans-serif;font-size:20px;fill:#50687e}.tiny{font-family:monospace;font-size:18px;fill:#486176}.box{fill:#fff;stroke:#7897b1;stroke-width:3}.blue{fill:#e5f2fa;stroke:#187caf;stroke-width:3}.green{fill:#edf7ed;stroke:#4d8d5a;stroke-width:3}.amber{fill:#fff4df;stroke:#c88725;stroke-width:3}.line{stroke:#426b8c;stroke-width:4;fill:none}.dash{stroke:#6f879a;stroke-width:3;stroke-dasharray:10 8;fill:none}</style>
<marker id="a" markerWidth="10" markerHeight="10" refX="8" refY="3" orient="auto"><path d="M0 0L9 3L0 6Z" fill="#426b8c"/></marker></defs><rect width="1200" height="650" rx="20" class="bg"/><text x="600" y="48" text-anchor="middle" class="title">Typed pending table</text><rect x="55" y="105" width="1090" height="82" rx="12" class="blue"/><text x="600" y="143" text-anchor="middle" class="head">Incoming response</text><text x="600" y="173" text-anchor="middle" class="txt">type = RPC | src = 2 | wire_id = 1042</text><path d="M600 187L600 245" class="line" marker-end="url(#a)"/><rect x="120" y="245" width="960" height="230" rx="12" class="box"/>
   <text x="220" y="285" text-anchor="middle" class="head">Slot</text><text x="420" y="285" text-anchor="middle" class="head">Type</text><text x="620" y="285" text-anchor="middle" class="head">Source</text><text x="830" y="285" text-anchor="middle" class="head">Wire ID</text><text x="1010" y="285" text-anchor="middle" class="head">State</text>
   <path d="M145 305H1055M145 355H1055M145 405H1055" class="dash"/>
   <text x="220" y="340" text-anchor="middle" class="txt">0</text><text x="420" y="340" text-anchor="middle" class="txt">mini9P</text><text x="620" y="340" text-anchor="middle" class="txt">1</text><text x="830" y="340" text-anchor="middle" class="txt">37</text><text x="1010" y="340" text-anchor="middle" class="txt">WAIT</text>
   <text x="220" y="390" text-anchor="middle" class="txt">1</text><text x="420" y="390" text-anchor="middle" class="txt">RPC</text><text x="620" y="390" text-anchor="middle" class="txt">2</text><text x="830" y="390" text-anchor="middle" class="txt">1042</text><text x="1010" y="390" text-anchor="middle" class="head">MATCH</text>
   <text x="220" y="440" text-anchor="middle" class="txt">2</text><text x="420" y="440" text-anchor="middle" class="txt">Job</text><text x="620" y="440" text-anchor="middle" class="txt">3</text><text x="830" y="440" text-anchor="middle" class="txt">18</text><text x="1010" y="440" text-anchor="middle" class="txt">WAIT</text>
   <path d="M830 475L830 545" class="line" marker-end="url(#a)"/><rect x="675" y="545" width="310" height="62" rx="12" class="green"/><text x="830" y="583" text-anchor="middle" class="head">Wake exact waiter</text><text x="830" y="613" text-anchor="middle" class="txt">no cross-protocol collision</text><text x="600" y="625" text-anchor="middle" class="txt">Matching source address alone is insufficient when file, RPC and Job traffic overlap.</text></svg>
