<svg xmlns="http://www.w3.org/2000/svg" width="1200" height="650" viewBox="0 0 1200 650"><defs>
<style>
.bg{fill:#f7fafc}.title{font-family:sans-serif;font-size:34px;font-weight:700;fill:#123b61}.head{font-family:sans-serif;font-size:26px;font-weight:700;fill:#173650}.txt{font-family:sans-serif;font-size:20px;fill:#50687e}.tiny{font-family:monospace;font-size:18px;fill:#486176}.box{fill:#fff;stroke:#7897b1;stroke-width:3}.blue{fill:#e5f2fa;stroke:#187caf;stroke-width:3}.green{fill:#edf7ed;stroke:#4d8d5a;stroke-width:3}.amber{fill:#fff4df;stroke:#c88725;stroke-width:3}.dark{fill:#173650;stroke:#173650;stroke-width:3}.line{stroke:#426b8c;stroke-width:4;fill:none}.dash{stroke:#6f879a;stroke-width:3;stroke-dasharray:10 8;fill:none}
</style>
<marker id="a" markerWidth="10" markerHeight="10" refX="8" refY="3" orient="auto"><path d="M0 0L9 3L0 6Z" fill="#426b8c"/></marker>
</defs><rect width="1200" height="650" rx="20" class="bg"/><text x="600" y="48" text-anchor="middle" class="title">mini9P health read</text><text x="135" y="95" text-anchor="middle" class="head">Shell</text><text x="390" y="95" text-anchor="middle" class="head">cluster_vfs</text><text x="650" y="95" text-anchor="middle" class="head">session</text><text x="1030" y="95" text-anchor="middle" class="head">STM32</text><path d="M135 110 L135 555" class="dash"/><path d="M390 110 L390 555" class="dash"/><path d="M650 110 L650 555" class="dash"/><path d="M1030 110 L1030 555" class="dash"/><path d="M135 150 L390 150" class="line" marker-end="url(#a)"/><text x="260" y="140" text-anchor="middle" class="tiny">cat /mcu1/sys/health</text><path d="M390 220 L650 220" class="line" marker-end="url(#a)"/><text x="520" y="210" text-anchor="middle" class="tiny">resolve mcu1 + local path</text><path d="M650 290 L1030 290" class="line" marker-end="url(#a)"/><text x="840" y="280" text-anchor="middle" class="tiny">attach / walk / open / read</text><path d="M1030 370 L650 370" class="line" marker-end="url(#a)"/><text x="840" y="360" text-anchor="middle" class="tiny">Rread: health text</text><path d="M650 440 L390 440" class="line" marker-end="url(#a)"/><text x="520" y="430" text-anchor="middle" class="tiny">complete typed pending</text><path d="M390 510 L135 510" class="line" marker-end="url(#a)"/><text x="260" y="500" text-anchor="middle" class="tiny">status=ok</text><text x="600" y="625" text-anchor="middle" class="txt">Only the owner host performs the UART transaction; remote hosts proxy the same path.</text></svg>
