<svg xmlns="http://www.w3.org/2000/svg" viewBox="0 0 1280 860" width="1280" height="860" font-family="ui-monospace, SFMono-Regular, Menlo, Monaco, Consolas, monospace" font-size="12">
  <defs>
    <style>
      .title { font-family: system-ui, sans-serif; font-size: 18px; font-weight: 600; fill: #1e293b; }
      .subtitle { font-family: system-ui, sans-serif; font-size: 13px; fill: #475569; }
      .label { font-family: ui-monospace, monospace; font-size: 13px; font-weight: 600; fill: #0f172a; }
      .lbl-small { font-family: ui-monospace, monospace; font-size: 10px; fill: #0f172a; }
      .byte-txt { font-family: ui-monospace, monospace; font-size: 10px; fill: #1e293b; text-anchor: middle; }
      .note { font-family: system-ui, sans-serif; font-size: 11px; fill: #64748b; }
      .hdr-fill { fill: #e2e8f0; stroke: #94a3b8; stroke-width: 1.5; }
      .crc-fill { fill: #fca5a5; stroke: #ef4444; stroke-width: 1.5; }
      .fid-fill { fill: #86efac; stroke: #22c55e; stroke-width: 1.5; }
      .qid-fill { fill: #67e8f9; stroke: #06b6d4; stroke-width: 1.5; }
      .cnt-fill { fill: #fdba74; stroke: #f97316; stroke-width: 1.5; }
      .off-fill { fill: #5eead4; stroke: #14b8a6; stroke-width: 1.5; }
      .mod-fill { fill: #fde047; stroke: #eab308; stroke-width: 1.5; }
      .dat-fill { fill: #fed7aa; stroke: #fb923c; stroke-width: 1.5; }
      .cod-fill { fill: #d8b4fe; stroke: #a855f7; stroke-width: 1.5; }
      .msz-fill { fill: #f9a8d4; stroke: #ec4899; stroke-width: 1.5; }
      .feat-fill { fill: #bfdbfe; stroke: #60a5fa; stroke-width: 1.5; }
      .aux-fill { fill: #c4b5fd; stroke: #8b5cf6; stroke-width: 1.5; }
      .iou-fill { fill: #a7f3d0; stroke: #34d399; stroke-width: 1.5; }
      .emp-fill { fill: #f1f5f9; stroke: #cbd5e1; stroke-width: 1.5; stroke-dasharray: 4 2; }
    </style>
  </defs>

  <!-- Background -->
  <rect x="0" y="0" width="1280" height="860" fill="#ffffff" rx="8"/>

  <!-- Title -->
  <text x="640" y="28" text-anchor="middle" class="title">Mini9P Protocol — Complete Frame Structures</text>
  <text x="640" y="48" text-anchor="middle" class="subtitle">All multi-byte integers are Little-Endian | Total frame length = 10 + payload_len bytes</text>

  <!-- Header Detail -->
  <g transform="translate(150, 62)">
    <text x="-10" y="18" text-anchor="end" class="label">Header</text>
    <text x="-10" y="32" text-anchor="end" class="lbl-small" fill="#64748b">(8 bytes)</text>

    <!-- 8 header cells -->
    <rect x="0" y="0" width="36" height="28" class="hdr-fill" rx="2"/>
    <rect x="38" y="0" width="36" height="28" class="hdr-fill" rx="2"/>
    <rect x="76" y="0" width="36" height="28" class="hdr-fill" rx="2"/>
    <rect x="114" y="0" width="36" height="28" class="hdr-fill" rx="2"/>
    <rect x="152" y="0" width="36" height="28" class="hdr-fill" rx="2"/>
    <rect x="190" y="0" width="36" height="28" class="hdr-fill" rx="2"/>
    <rect x="228" y="0" width="36" height="28" class="hdr-fill" rx="2"/>
    <rect x="266" y="0" width="36" height="28" class="hdr-fill" rx="2"/>

    <text x="18" y="12" class="byte-txt">0x39</text>
    <text x="18" y="23" class="byte-txt" fill="#64748b">'9'</text>

    <text x="56" y="12" class="byte-txt">0x50</text>
    <text x="56" y="23" class="byte-txt" fill="#64748b">'P'</text>

    <text x="94" y="12" class="byte-txt">len</text>
    <text x="94" y="23" class="byte-txt" fill="#64748b">[0]</text>

    <text x="132" y="12" class="byte-txt">len</text>
    <text x="132" y="23" class="byte-txt" fill="#64748b">[1]</text>

    <text x="170" y="12" class="byte-txt">ver</text>
    <text x="170" y="23" class="byte-txt" fill="#64748b">0x01</text>

    <text x="208" y="12" class="byte-txt">type</text>
    <text x="208" y="23" class="byte-txt" fill="#64748b">1B</text>

    <text x="246" y="12" class="byte-txt">tag</text>
    <text x="246" y="23" class="byte-txt" fill="#64748b">[0]</text>

    <text x="284" y="12" class="byte-txt">tag</text>
    <text x="284" y="23" class="byte-txt" fill="#64748b">[1]</text>

    <!-- offset labels under cells -->
    <text x="18" y="42" text-anchor="middle" class="note">off 0</text>
    <text x="56" y="42" text-anchor="middle" class="note">1</text>
    <text x="94" y="42" text-anchor="middle" class="note">2</text>
    <text x="132" y="42" text-anchor="middle" class="note">3</text>
    <text x="170" y="42" text-anchor="middle" class="note">4</text>
    <text x="208" y="42" text-anchor="middle" class="note">5</text>
    <text x="246" y="42" text-anchor="middle" class="note">6</text>
    <text x="284" y="42" text-anchor="middle" class="note">7</text>
  </g>

  <!-- Header annotation -->
  <g transform="translate(150, 62)">
    <line x1="94" y1="-8" x2="94" y2="-2" stroke="#64748b" stroke-width="1"/>
    <line x1="132" y1="-8" x2="132" y2="-2" stroke="#64748b" stroke-width="1"/>
    <line x1="94" y1="-5" x2="132" y2="-5" stroke="#64748b" stroke-width="1"/>
    <text x="113" y="-10" text-anchor="middle" class="note" font-size="10">frame_len_field = 4 + payload_len (uint16 LE)</text>
  </g>

  <!-- Divider -->
  <line x1="20" y1="118" x2="1260" y2="118" stroke="#e2e8f0" stroke-width="1"/>

  <!-- Frame rows -->
  <g id="frames" transform="translate(0, 130)">

    <!-- Helper to draw a row -->
    <!-- We'll manually place each row for precision -->

    <!-- Tattach 0x01 -->
    <g transform="translate(0, 0)">
      <text x="10" y="18" class="label">Tattach</text>
      <text x="10" y="30" class="lbl-small" fill="#64748b">0x01</text>
      <rect x="150" y="0" width="270" height="26" class="hdr-fill" rx="2"/>
      <text x="285" y="17" text-anchor="middle" class="lbl-small">Header (8)</text>

      <rect x="426" y="0" width="66" height="26" class="fid-fill" rx="2"/>
      <text x="459" y="17" text-anchor="middle" class="lbl-small">fid (2)</text>

      <rect x="494" y="0" width="66" height="26" class="msz-fill" rx="2"/>
      <text x="527" y="17" text-anchor="middle" class="lbl-small">msize (2)</text>

      <rect x="562" y="0" width="32" height="26" class="aux-fill" rx="2"/>
      <text x="578" y="17" text-anchor="middle" class="lbl-small">inf</text>

      <rect x="596" y="0" width="32" height="26" class="mod-fill" rx="2"/>
      <text x="612" y="17" text-anchor="middle" class="lbl-small">flg</text>

      <rect x="634" y="0" width="66" height="26" class="crc-fill" rx="2"/>
      <text x="667" y="17" text-anchor="middle" class="lbl-small">CRC (2)</text>
    </g>

    <!-- Rattach 0x81 -->
    <g transform="translate(0, 34)">
      <text x="10" y="18" class="label">Rattach</text>
      <text x="10" y="30" class="lbl-small" fill="#64748b">0x81</text>
      <rect x="150" y="0" width="270" height="26" class="hdr-fill" rx="2"/>
      <text x="285" y="17" text-anchor="middle" class="lbl-small">Header (8)</text>

      <rect x="426" y="0" width="66" height="26" class="msz-fill" rx="2"/>
      <text x="459" y="17" text-anchor="middle" class="lbl-small">msize (2)</text>

      <rect x="494" y="0" width="32" height="26" class="aux-fill" rx="2"/>
      <text x="510" y="17" text-anchor="middle" class="lbl-small">mfid</text>

      <rect x="528" y="0" width="32" height="26" class="aux-fill" rx="2"/>
      <text x="544" y="17" text-anchor="middle" class="lbl-small">mif</text>

      <rect x="562" y="0" width="134" height="26" class="feat-fill" rx="2"/>
      <text x="629" y="17" text-anchor="middle" class="lbl-small">feature_bits (4)</text>

      <rect x="698" y="0" width="270" height="26" class="qid-fill" rx="2"/>
      <text x="833" y="17" text-anchor="middle" class="lbl-small">root_qid (8)</text>

      <rect x="974" y="0" width="66" height="26" class="crc-fill" rx="2"/>
      <text x="1007" y="17" text-anchor="middle" class="lbl-small">CRC (2)</text>
    </g>

    <!-- Twalk 0x02 -->
    <g transform="translate(0, 68)">
      <text x="10" y="18" class="label">Twalk</text>
      <text x="10" y="30" class="lbl-small" fill="#64748b">0x02</text>
      <rect x="150" y="0" width="270" height="26" class="hdr-fill" rx="2"/>
      <text x="285" y="17" text-anchor="middle" class="lbl-small">Header (8)</text>

      <rect x="426" y="0" width="66" height="26" class="fid-fill" rx="2"/>
      <text x="459" y="17" text-anchor="middle" class="lbl-small">fid (2)</text>

      <rect x="494" y="0" width="66" height="26" class="fid-fill" rx="2"/>
      <text x="527" y="17" text-anchor="middle" class="lbl-small">newfid (2)</text>

      <rect x="562" y="0" width="32" height="26" class="cnt-fill" rx="2"/>
      <text x="578" y="17" text-anchor="middle" class="lbl-small">len</text>

      <rect x="596" y="0" width="100" height="26" class="dat-fill" rx="2"/>
      <text x="646" y="17" text-anchor="middle" class="lbl-small">path [N]</text>

      <rect x="700" y="0" width="66" height="26" class="crc-fill" rx="2"/>
      <text x="733" y="17" text-anchor="middle" class="lbl-small">CRC (2)</text>
    </g>

    <!-- Rwalk 0x82 -->
    <g transform="translate(0, 102)">
      <text x="10" y="18" class="label">Rwalk</text>
      <text x="10" y="30" class="lbl-small" fill="#64748b">0x82</text>
      <rect x="150" y="0" width="270" height="26" class="hdr-fill" rx="2"/>
      <text x="285" y="17" text-anchor="middle" class="lbl-small">Header (8)</text>

      <rect x="426" y="0" width="270" height="26" class="qid-fill" rx="2"/>
      <text x="561" y="17" text-anchor="middle" class="lbl-small">qid (8)</text>

      <rect x="702" y="0" width="66" height="26" class="crc-fill" rx="2"/>
      <text x="735" y="17" text-anchor="middle" class="lbl-small">CRC (2)</text>
    </g>

    <!-- Topen 0x03 -->
    <g transform="translate(0, 136)">
      <text x="10" y="18" class="label">Topen</text>
      <text x="10" y="30" class="lbl-small" fill="#64748b">0x03</text>
      <rect x="150" y="0" width="270" height="26" class="hdr-fill" rx="2"/>
      <text x="285" y="17" text-anchor="middle" class="lbl-small">Header (8)</text>

      <rect x="426" y="0" width="66" height="26" class="fid-fill" rx="2"/>
      <text x="459" y="17" text-anchor="middle" class="lbl-small">fid (2)</text>

      <rect x="494" y="0" width="32" height="26" class="mod-fill" rx="2"/>
      <text x="510" y="17" text-anchor="middle" class="lbl-small">mode</text>

      <rect x="528" y="0" width="66" height="26" class="crc-fill" rx="2"/>
      <text x="561" y="17" text-anchor="middle" class="lbl-small">CRC (2)</text>
    </g>

    <!-- Ropen 0x83 -->
    <g transform="translate(0, 170)">
      <text x="10" y="18" class="label">Ropen</text>
      <text x="10" y="30" class="lbl-small" fill="#64748b">0x83</text>
      <rect x="150" y="0" width="270" height="26" class="hdr-fill" rx="2"/>
      <text x="285" y="17" text-anchor="middle" class="lbl-small">Header (8)</text>

      <rect x="426" y="0" width="270" height="26" class="qid-fill" rx="2"/>
      <text x="561" y="17" text-anchor="middle" class="lbl-small">qid (8)</text>

      <rect x="700" y="0" width="66" height="26" class="iou-fill" rx="2"/>
      <text x="733" y="17" text-anchor="middle" class="lbl-small">iounit (2)</text>

      <rect x="770" y="0" width="66" height="26" class="crc-fill" rx="2"/>
      <text x="803" y="17" text-anchor="middle" class="lbl-small">CRC (2)</text>
    </g>

    <!-- Tread 0x04 -->
    <g transform="translate(0, 204)">
      <text x="10" y="18" class="label">Tread</text>
      <text x="10" y="30" class="lbl-small" fill="#64748b">0x04</text>
      <rect x="150" y="0" width="270" height="26" class="hdr-fill" rx="2"/>
      <text x="285" y="17" text-anchor="middle" class="lbl-small">Header (8)</text>

      <rect x="426" y="0" width="66" height="26" class="fid-fill" rx="2"/>
      <text x="459" y="17" text-anchor="middle" class="lbl-small">fid (2)</text>

      <rect x="494" y="0" width="134" height="26" class="off-fill" rx="2"/>
      <text x="561" y="17" text-anchor="middle" class="lbl-small">offset (4)</text>

      <rect x="630" y="0" width="66" height="26" class="cnt-fill" rx="2"/>
      <text x="663" y="17" text-anchor="middle" class="lbl-small">count (2)</text>

      <rect x="700" y="0" width="66" height="26" class="crc-fill" rx="2"/>
      <text x="733" y="17" text-anchor="middle" class="lbl-small">CRC (2)</text>
    </g>

    <!-- Rread 0x84 -->
    <g transform="translate(0, 238)">
      <text x="10" y="18" class="label">Rread</text>
      <text x="10" y="30" class="lbl-small" fill="#64748b">0x84</text>
      <rect x="150" y="0" width="270" height="26" class="hdr-fill" rx="2"/>
      <text x="285" y="17" text-anchor="middle" class="lbl-small">Header (8)</text>

      <rect x="426" y="0" width="66" height="26" class="cnt-fill" rx="2"/>
      <text x="459" y="17" text-anchor="middle" class="lbl-small">count (2)</text>

      <rect x="494" y="0" width="120" height="26" class="dat-fill" rx="2"/>
      <text x="554" y="17" text-anchor="middle" class="lbl-small">data [N bytes]</text>

      <rect x="618" y="0" width="66" height="26" class="crc-fill" rx="2"/>
      <text x="651" y="17" text-anchor="middle" class="lbl-small">CRC (2)</text>
    </g>

    <!-- Twrite 0x05 -->
    <g transform="translate(0, 272)">
      <text x="10" y="18" class="label">Twrite</text>
      <text x="10" y="30" class="lbl-small" fill="#64748b">0x05</text>
      <rect x="150" y="0" width="270" height="26" class="hdr-fill" rx="2"/>
      <text x="285" y="17" text-anchor="middle" class="lbl-small">Header (8)</text>

      <rect x="426" y="0" width="66" height="26" class="fid-fill" rx="2"/>
      <text x="459" y="17" text-anchor="middle" class="lbl-small">fid (2)</text>

      <rect x="494" y="0" width="134" height="26" class="off-fill" rx="2"/>
      <text x="561" y="17" text-anchor="middle" class="lbl-small">offset (4)</text>

      <rect x="630" y="0" width="66" height="26" class="cnt-fill" rx="2"/>
      <text x="663" y="17" text-anchor="middle" class="lbl-small">count (2)</text>

      <rect x="698" y="0" width="120" height="26" class="dat-fill" rx="2"/>
      <text x="758" y="17" text-anchor="middle" class="lbl-small">data [N bytes]</text>

      <rect x="822" y="0" width="66" height="26" class="crc-fill" rx="2"/>
      <text x="855" y="17" text-anchor="middle" class="lbl-small">CRC (2)</text>
    </g>

    <!-- Rwrite 0x85 -->
    <g transform="translate(0, 306)">
      <text x="10" y="18" class="label">Rwrite</text>
      <text x="10" y="30" class="lbl-small" fill="#64748b">0x85</text>
      <rect x="150" y="0" width="270" height="26" class="hdr-fill" rx="2"/>
      <text x="285" y="17" text-anchor="middle" class="lbl-small">Header (8)</text>

      <rect x="426" y="0" width="66" height="26" class="cnt-fill" rx="2"/>
      <text x="459" y="17" text-anchor="middle" class="lbl-small">count (2)</text>

      <rect x="494" y="0" width="66" height="26" class="crc-fill" rx="2"/>
      <text x="527" y="17" text-anchor="middle" class="lbl-small">CRC (2)</text>
    </g>

    <!-- Tstat 0x06 -->
    <g transform="translate(0, 340)">
      <text x="10" y="18" class="label">Tstat</text>
      <text x="10" y="30" class="lbl-small" fill="#64748b">0x06</text>
      <rect x="150" y="0" width="270" height="26" class="hdr-fill" rx="2"/>
      <text x="285" y="17" text-anchor="middle" class="lbl-small">Header (8)</text>

      <rect x="426" y="0" width="66" height="26" class="fid-fill" rx="2"/>
      <text x="459" y="17" text-anchor="middle" class="lbl-small">fid (2)</text>

      <rect x="494" y="0" width="66" height="26" class="crc-fill" rx="2"/>
      <text x="527" y="17" text-anchor="middle" class="lbl-small">CRC (2)</text>
    </g>

    <!-- Rstat 0x86 -->
    <g transform="translate(0, 374)">
      <text x="10" y="18" class="label">Rstat</text>
      <text x="10" y="30" class="lbl-small" fill="#64748b">0x86</text>
      <rect x="150" y="0" width="270" height="26" class="hdr-fill" rx="2"/>
      <text x="285" y="17" text-anchor="middle" class="lbl-small">Header (8)</text>

      <rect x="426" y="0" width="270" height="26" class="qid-fill" rx="2"/>
      <text x="561" y="17" text-anchor="middle" class="lbl-small">qid (8)</text>

      <rect x="700" y="0" width="32" height="26" class="mod-fill" rx="2"/>
      <text x="716" y="17" text-anchor="middle" class="lbl-small">perm</text>

      <rect x="734" y="0" width="32" height="26" class="mod-fill" rx="2"/>
      <text x="750" y="17" text-anchor="middle" class="lbl-small">flg</text>

      <rect x="768" y="0" width="134" height="26" class="cnt-fill" rx="2"/>
      <text x="835" y="17" text-anchor="middle" class="lbl-small">size (4)</text>

      <rect x="904" y="0" width="134" height="26" class="off-fill" rx="2"/>
      <text x="971" y="17" text-anchor="middle" class="lbl-small">mtime (4)</text>

      <rect x="1040" y="0" width="32" height="26" class="cnt-fill" rx="2"/>
      <text x="1056" y="17" text-anchor="middle" class="lbl-small">len</text>

      <rect x="1074" y="0" width="100" height="26" class="dat-fill" rx="2"/>
      <text x="1124" y="17" text-anchor="middle" class="lbl-small">name [N]</text>

      <rect x="1176" y="0" width="66" height="26" class="crc-fill" rx="2"/>
      <text x="1209" y="17" text-anchor="middle" class="lbl-small">CRC (2)</text>
    </g>

    <!-- Tclunk 0x07 -->
    <g transform="translate(0, 408)">
      <text x="10" y="18" class="label">Tclunk</text>
      <text x="10" y="30" class="lbl-small" fill="#64748b">0x07</text>
      <rect x="150" y="0" width="270" height="26" class="hdr-fill" rx="2"/>
      <text x="285" y="17" text-anchor="middle" class="lbl-small">Header (8)</text>

      <rect x="426" y="0" width="66" height="26" class="fid-fill" rx="2"/>
      <text x="459" y="17" text-anchor="middle" class="lbl-small">fid (2)</text>

      <rect x="494" y="0" width="66" height="26" class="crc-fill" rx="2"/>
      <text x="527" y="17" text-anchor="middle" class="lbl-small">CRC (2)</text>
    </g>

    <!-- Rclunk 0x87 -->
    <g transform="translate(0, 442)">
      <text x="10" y="18" class="label">Rclunk</text>
      <text x="10" y="30" class="lbl-small" fill="#64748b">0x87</text>
      <rect x="150" y="0" width="270" height="26" class="hdr-fill" rx="2"/>
      <text x="285" y="17" text-anchor="middle" class="lbl-small">Header (8)</text>

      <rect x="426" y="0" width="50" height="26" class="emp-fill" rx="2"/>
      <text x="451" y="17" text-anchor="middle" class="lbl-small">∅ (0)</text>

      <rect x="480" y="0" width="66" height="26" class="crc-fill" rx="2"/>
      <text x="513" y="17" text-anchor="middle" class="lbl-small">CRC (2)</text>
    </g>

    <!-- Rerror 0xFF -->
    <g transform="translate(0, 476)">
      <text x="10" y="18" class="label">Rerror</text>
      <text x="10" y="30" class="lbl-small" fill="#64748b">0xFF</text>
      <rect x="150" y="0" width="270" height="26" class="hdr-fill" rx="2"/>
      <text x="285" y="17" text-anchor="middle" class="lbl-small">Header (8)</text>

      <rect x="426" y="0" width="66" height="26" class="cod-fill" rx="2"/>
      <text x="459" y="17" text-anchor="middle" class="lbl-small">code (2)</text>

      <rect x="494" y="0" width="32" height="26" class="cnt-fill" rx="2"/>
      <text x="510" y="17" text-anchor="middle" class="lbl-small">len</text>

      <rect x="528" y="0" width="100" height="26" class="dat-fill" rx="2"/>
      <text x="578" y="17" text-anchor="middle" class="lbl-small">msg [N]</text>

      <rect x="632" y="0" width="66" height="26" class="crc-fill" rx="2"/>
      <text x="665" y="17" text-anchor="middle" class="lbl-small">CRC (2)</text>
    </g>

  </g>

  <!-- Legend -->
  <g transform="translate(150, 640)">
    <text x="0" y="0" class="label" font-size="14">Legend</text>

    <g transform="translate(0, 14)">
      <rect x="0" y="0" width="32" height="18" class="hdr-fill" rx="2"/>
      <text x="40" y="13" class="note">Fixed Header (Magic + Length + Version + Type + Tag)</text>
    </g>

    <g transform="translate(0, 38)">
      <rect x="0" y="0" width="32" height="18" class="crc-fill" rx="2"/>
      <text x="40" y="13" class="note">CRC-16 / CCITT-FALSE (covers ver+type+tag+payload)</text>
    </g>

    <g transform="translate(0, 62)">
      <rect x="0" y="0" width="32" height="18" class="fid-fill" rx="2"/>
      <text x="40" y="13" class="note">fid / newfid</text>

      <rect x="140" y="0" width="32" height="18" class="qid-fill" rx="2"/>
      <text x="178" y="13" class="note">qid (8 bytes: type+res+version+object_id)</text>

      <rect x="380" y="0" width="32" height="18" class="cnt-fill" rx="2"/>
      <text x="418" y="13" class="note">count / length fields</text>
    </g>

    <g transform="translate(0, 86)">
      <rect x="0" y="0" width="32" height="18" class="off-fill" rx="2"/>
      <text x="40" y="13" class="note">offset / mtime / size</text>

      <rect x="180" y="0" width="32" height="18" class="mod-fill" rx="2"/>
      <text x="218" y="13" class="note">mode / perm / flags / version / type</text>

      <rect x="420" y="0" width="32" height="18" class="dat-fill" rx="2"/>
      <text x="458" y="13" class="note">data / path / name / msg (variable)</text>
    </g>

    <g transform="translate(0, 110)">
      <rect x="0" y="0" width="32" height="18" class="msz-fill" rx="2"/>
      <text x="40" y="13" class="note">msize (negotiated)</text>

      <rect x="160" y="0" width="32" height="18" class="feat-fill" rx="2"/>
      <text x="198" y="13" class="note">feature_bits</text>

      <rect x="300" y="0" width="32" height="18" class="aux-fill" rx="2"/>
      <text x="338" y="13" class="note">max_fids / max_inflight / inflight</text>

      <rect x="540" y="0" width="32" height="18" class="cod-fill" rx="2"/>
      <text x="578" y="13" class="note">error code</text>

      <rect x="680" y="0" width="32" height="18" class="iou-fill" rx="2"/>
      <text x="718" y="13" class="note">iounit</text>
    </g>
  </g>

  <!-- Footer note -->
  <text x="640" y="820" text-anchor="middle" class="note" font-size="11">
    All fixed-length fields use Little-Endian byte order | Gray boxes = header, Red boxes = CRC, Dashed box = empty payload
  </text>
  <text x="640" y="838" text-anchor="middle" class="note" font-size="11">
    Frame length in header = 4 + payload_len | Minimum frame size = 10 bytes (M9P_FRAME_OVERHEAD)
  </text>
</svg>