<svg xmlns="http://www.w3.org/2000/svg" viewBox="0 0 800 700">
  <!-- 背景 -->
  <rect width="800" height="700" fill="#f8f9fa"/>
  
  <!-- 标题 -->
  <text x="400" y="30" text-anchor="middle" font-size="18" font-weight="bold" fill="#333">MCU 分布式系统架构图</text>
  
  <!-- ========== 用户层 ========== -->
  <rect x="50" y="50" width="700" height="80" rx="5" fill="#e3f2fd" stroke="#1976d2" stroke-width="2"/>
  <text x="400" y="75" text-anchor="middle" font-size="14" font-weight="bold" fill="#1565c0">用户层</text>
  
  <rect x="150" y="90" width="120" height="30" rx="3" fill="#bbdefb" stroke="#1976d2"/>
  <text x="210" y="110" text-anchor="middle" font-size="12" fill="#1565c0">Web Dashboard</text>
  
  <rect x="340" y="90" width="120" height="30" rx="3" fill="#bbdefb" stroke="#1976d2"/>
  <text x="400" y="110" text-anchor="middle" font-size="12" fill="#1565c0">Unix-like Shell</text>
  
  <rect x="530" y="90" width="120" height="30" rx="3" fill="#bbdefb" stroke="#1976d2"/>
  <text x="590" y="110" text-anchor="middle" font-size="12" fill="#1565c0">终端命令</text>
  
  <!-- 连接线到主机层 -->
  <line x1="210" y1="120" x2="210" y2="145" stroke="#666" stroke-width="1.5"/>
  <line x1="400" y1="120" x2="400" y2="145" stroke="#666" stroke-width="1.5"/>
  <line x1="590" y1="120" x2="590" y2="145" stroke="#666" stroke-width="1.5"/>
  
  <!-- ========== 主机层 ========== -->
  <rect x="50" y="145" width="700" height="100" rx="5" fill="#fff3e0" stroke="#f57c00" stroke-width="2"/>
  <text x="400" y="165" text-anchor="middle" font-size="14" font-weight="bold" fill="#e65100">主机层 (Host)</text>
  
  <rect x="100" y="180" width="140" height="50" rx="3" fill="#ffe0b2" stroke="#f57c00"/>
  <text x="170" y="205" text-anchor="middle" font-size="11" fill="#e65100">VFS 虚拟文件系统</text>
  <text x="170" y="220" text-anchor="middle" font-size="10" fill="#bf360c">统一挂载管理</text>
  
  <rect x="330" y="180" width="140" height="50" rx="3" fill="#ffe0b2" stroke="#f57c00"/>
  <text x="400" y="205" text-anchor="middle" font-size="11" fill="#e65100">微服务器</text>
  <text x="400" y="220" text-anchor="middle" font-size="10" fill="#bf360c">HTTP/WebSocket</text>
  
  <rect x="560" y="180" width="140" height="50" rx="3" fill="#ffe0b2" stroke="#f57c00"/>
  <text x="630" y="205" text-anchor="middle" font-size="11" fill="#e65100">Unix-like 系统</text>
  <text x="630" y="220" text-anchor="middle" font-size="10" fill="#bf360c">DiscoBSD 参考</text>
  
  <!-- 连接线到协议层 -->
  <line x1="170" y1="230" x2="170" y2="255" stroke="#666" stroke-width="1.5"/>
  <line x1="630" y1="230" x2="630" y2="255" stroke="#666" stroke-width="1.5"/>
  
  <!-- ========== 协议层 ========== -->
  <rect x="50" y="255" width="700" height="70" rx="5" fill="#f3e5f5" stroke="#7b1fa2" stroke-width="2"/>
  <text x="400" y="275" text-anchor="middle" font-size="14" font-weight="bold" fill="#4a148c">通信协议层</text>
  
  <rect x="200" y="290" width="400" height="25" rx="3" fill="#e1bee7" stroke="#7b1fa2"/>
  <text x="400" y="307" text-anchor="middle" font-size="12" fill="#4a148c">简化 9P 协议 (walk, attach, open, read, write, stat, clunk)</text>
  
  <!-- ========== MCU 集群层 ========== -->
  <rect x="50" y="340" width="700" height="180" rx="5" fill="#e8f5e9" stroke="#388e3c" stroke-width="2"/>
  <text x="400" y="360" text-anchor="middle" font-size="14" font-weight="bold" fill="#1b5e20">MCU 集群层</text>
  
  <!-- MCU 1 -->
  <rect x="80" y="380" width="180" height="120" rx="5" fill="#c8e6c9" stroke="#388e3c"/>
  <text x="170" y="400" text-anchor="middle" font-size="12" font-weight="bold" fill="#2e7d32">MCU 1</text>
  <rect x="95" y="415" width="150" height="25" rx="2" fill="#a5d6a7" stroke="#388e3c"/>
  <text x="170" y="432" text-anchor="middle" font-size="10" fill="#1b5e20">小型 RTOS</text>
  <rect x="95" y="445" width="70" height="20" rx="2" fill="#81c784" stroke="#388e3c"/>
  <text x="130" y="459" text-anchor="middle" font-size="9" fill="#1b5e20">LittleFS</text>
  <rect x="175" y="445" width="70" height="20" rx="2" fill="#81c784" stroke="#388e3c"/>
  <text x="210" y="459" text-anchor="middle" font-size="9" fill="#1b5e20">外设接口</text>
  <rect x="95" y="470" width="150" height="20" rx="2" fill="#66bb6a" stroke="#388e3c"/>
  <text x="170" y="484" text-anchor="middle" font-size="9" fill="#fff">温度传感器 / LED</text>
  
  <!-- MCU 2 -->
  <rect x="310" y="380" width="180" height="120" rx="5" fill="#c8e6c9" stroke="#388e3c"/>
  <text x="400" y="400" text-anchor="middle" font-size="12" font-weight="bold" fill="#2e7d32">MCU 2</text>
  <rect x="325" y="415" width="150" height="25" rx="2" fill="#a5d6a7" stroke="#388e3c"/>
  <text x="400" y="432" text-anchor="middle" font-size="10" fill="#1b5e20">小型 RTOS</text>
  <rect x="325" y="445" width="70" height="20" rx="2" fill="#81c784" stroke="#388e3c"/>
  <text x="360" y="459" text-anchor="middle" font-size="9" fill="#1b5e20">LittleFS</text>
  <rect x="405" y="445" width="70" height="20" rx="2" fill="#81c784" stroke="#388e3c"/>
  <text x="440" y="459" text-anchor="middle" font-size="9" fill="#1b5e20">外设接口</text>
  <rect x="325" y="470" width="150" height="20" rx="2" fill="#66bb6a" stroke="#388e3c"/>
  <text x="400" y="484" text-anchor="middle" font-size="9" fill="#fff">电机控制 / 存储</text>
  
  <!-- MCU N -->
  <rect x="540" y="380" width="180" height="120" rx="5" fill="#c8e6c9" stroke="#388e3c"/>
  <text x="630" y="400" text-anchor="middle" font-size="12" font-weight="bold" fill="#2e7d32">MCU N</text>
  <rect x="555" y="415" width="150" height="25" rx="2" fill="#a5d6a7" stroke="#388e3c"/>
  <text x="630" y="432" text-anchor="middle" font-size="10" fill="#1b5e20">小型 RTOS</text>
  <rect x="555" y="445" width="70" height="20" rx="2" fill="#81c784" stroke="#388e3c"/>
  <text x="590" y="459" text-anchor="middle" font-size="9" fill="#1b5e20">LittleFS</text>
  <rect x="635" y="445" width="70" height="20" rx="2" fill="#81c784" stroke="#388e3c"/>
  <text x="670" y="459" text-anchor="middle" font-size="9" fill="#1b5e20">外设接口</text>
  <rect x="555" y="470" width="150" height="20" rx="2" fill="#66bb6a" stroke="#388e3c"/>
  <text x="630" y="484" text-anchor="middle" font-size="9" fill="#fff">并行计算节点</text>
  
  <!-- ========== 硬件层 ========== -->
  <rect x="50" y="540" width="700" height="140" rx="5" fill="#ffebee" stroke="#c62828" stroke-width="2"/>
  <text x="400" y="560" text-anchor="middle" font-size="14" font-weight="bold" fill="#b71c1c">物理硬件层</text>
  
  <rect x="80" y="580" width="100" height="80" rx="3" fill="#ffcdd2" stroke="#c62828"/>
  <text x="130" y="600" text-anchor="middle" font-size="11" font-weight="bold" fill="#c62828">传感器</text>
  <rect x="90" y="610" width="80" height="18" rx="2" fill="#ef9a9a"/>
  <text x="130" y="623" text-anchor="middle" font-size="9" fill="#b71c1c">温度传感器</text>
  <rect x="90" y="632" width="80" height="18" rx="2" fill="#ef9a9a"/>
  <text x="130" y="645" text-anchor="middle" font-size="9" fill="#b71c1c">湿度传感器</text>
  
  <rect x="200" y="580" width="100" height="80" rx="3" fill="#ffcdd2" stroke="#c62828"/>
  <text x="250" y="600" text-anchor="middle" font-size="11" font-weight="bold" fill="#c62828">执行器</text>
  <rect x="210" y="610" width="80" height="18" rx="2" fill="#ef9a9a"/>
  <text x="250" y="623" text-anchor="middle" font-size="9" fill="#b71c1c">LED 灯</text>
  <rect x="210" y="632" width="80" height="18" rx="2" fill="#ef9a9a"/>
  <text x="250" y="645" text-anchor="middle" font-size="9" fill="#b71c1c">电机 / 舵机</text>
  
  <rect x="320" y="580" width="100" height="80" rx="3" fill="#ffcdd2" stroke="#c62828"/>
  <text x="370" y="600" text-anchor="middle" font-size="11" font-weight="bold" fill="#c62828">存储设备</text>
  <rect x="330" y="610" width="80" height="18" rx="2" fill="#ef9a9a"/>
  <text x="370" y="623" text-anchor="middle" font-size="9" fill="#b71c1c">Flash</text>
  <rect x="330" y="632" width="80" height="18" rx="2" fill="#ef9a9a"/>
  <text x="370" y="645" text-anchor="middle" font-size="9" fill="#b71c1c">SD 卡</text>
  
  <rect x="440" y="580" width="130" height="80" rx="3" fill="#ffcdd2" stroke="#c62828"/>
  <text x="505" y="600" text-anchor="middle" font-size="11" font-weight="bold" fill="#c62828">通信接口</text>
  <rect x="450" y="610" width="110" height="18" rx="2" fill="#ef9a9a"/>
  <text x="505" y="623" text-anchor="middle" font-size="9" fill="#b71c1c">SPI / I2C</text>
  <rect x="450" y="632" width="110" height="18" rx="2" fill="#ef9a9a"/>
  <text x="505" y="645" text-anchor="middle" font-size="9" fill="#b71c1c">DMA / 中断</text>
  
  <rect x="590" y="580" width="130" height="80" rx="3" fill="#ffcdd2" stroke="#c62828"/>
  <text x="655" y="600" text-anchor="middle" font-size="11" font-weight="bold" fill="#c62828">计算单元</text>
  <rect x="600" y="610" width="110" height="18" rx="2" fill="#ef9a9a"/>
  <text x="655" y="623" text-anchor="middle" font-size="9" fill="#b71c1c">CPU Core</text>
  <rect x="600" y="632" width="110" height="18" rx="2" fill="#ef9a9a"/>
  <text x="655" y="645" text-anchor="middle" font-size="9" fill="#b71c1c">Jacobi / MatMul</text>
  
  <!-- 示例命令说明 -->
  <rect x="55" y="600" width="180" height="70" rx="3" fill="#fff9c4" stroke="#f9a825" stroke-width="1"/>
  <text x="145" y="620" text-anchor="middle" font-size="10" font-weight="bold" fill="#f57f17">示例命令</text>
  <text x="145" y="640" text-anchor="middle" font-size="9" fill="#5d4037">cat /dev/mcu1/temp</text>
  <text x="145" y="658" text-anchor="middle" font-size="9" fill="#5d4037">echo 100 &gt; /dev/mcu2/motor</text>
</svg>